<svg width="40" height="40" viewBox="0 0 40 40" fill="none" xmlns="http://www.w3.org/2000/svg">
<g id="icomoon-free:github" clip-path="url(#clip0_56_17)">
<path id="Vector" d="M20 0.494995C15.2491 0.492747 10.6526 2.18177 7.03356 5.25962C3.4145 8.33746 1.00926 12.6031 0.248574 17.2927C-0.512116 21.9822 0.421418 26.7895 2.882 30.8535C5.34259 34.9175 9.16953 37.9729 13.6775 39.4725C14.6775 39.6575 15.045 39.0375 15.045 38.51C15.045 38.0325 15.025 36.4575 15.0175 34.7875C9.4525 35.9975 8.28 32.4275 8.28 32.4275C7.37 30.115 6.06 29.5 6.06 29.5C4.245 28.2575 6.1975 28.285 6.1975 28.285C8.205 28.425 9.2625 30.345 9.2625 30.345C11.0475 33.4025 13.9425 32.5175 15.0825 32.0075C15.2625 30.715 15.78 29.8325 16.3525 29.3325C11.91 28.8275 7.24 27.1125 7.24 19.4475C7.24 17.265 8.0225 15.48 9.3 14.08C9.0925 13.575 8.4075 11.5425 9.4925 8.7875C9.4925 8.7875 11.1725 8.25 14.995 10.8375C16.6264 10.3937 18.3093 10.1676 20 10.165C21.7 10.1725 23.4125 10.395 25.01 10.8375C28.8275 8.25 30.505 8.7875 30.505 8.7875C31.5925 11.5425 30.91 13.5775 30.7025 14.08C31.985 15.48 32.76 17.265 32.76 19.4475C32.76 27.13 28.08 28.82 23.6275 29.315C24.345 29.935 24.985 31.1525 24.985 33.0175C24.985 35.6925 24.9625 37.8475 24.9625 38.505C24.9625 39.0375 25.3225 39.66 26.3375 39.465C30.8446 37.9637 34.6702 34.907 37.1292 30.8423C39.5882 26.7776 40.5201 21.9704 39.7579 17.2813C38.9957 12.5922 36.5893 8.32755 32.9696 5.25091C29.3498 2.17426 24.7531 0.48656 20.0025 0.489995L20 0.494995Z" fill="black"/>
</g>
<defs>
<clipPath id="clip0_56_17">
<rect width="40" height="40" fill="white"/>
</clipPath>
</defs>
</svg>
