<svg width="54" height="40" viewBox="0 0 54 40" fill="none" xmlns="http://www.w3.org/2000/svg">
<g id="logos:google-gmail" clip-path="url(#clip0_56_8)">
<path id="Vector" d="M12.0599 39.8031V19.3036L5.70244 13.4875L0.0015023 10.2599V36.1855C0.0015023 38.1871 1.62326 39.8031 3.61912 39.8031H12.0599Z" fill="#4285F4"/>
<path id="Vector_2" d="M41 39.8031H49.4409C51.4427 39.8031 53.0585 38.1812 53.0585 36.1855V10.2601L46.6013 13.9569L41 19.3037V39.8031Z" fill="#34A853"/>
<path id="Vector_3" d="M12.0599 19.3036L11.1949 11.2939L12.0599 3.62775L26.53 14.4804L41.0001 3.62775L41.9677 10.88L41.0001 19.3036L26.53 30.1562L12.0599 19.3036Z" fill="#EA4335"/>
<path id="Vector_4" d="M41 3.62777V19.3036L53.0585 10.2599V5.43647C53.0585 0.962899 47.9518 -1.58736 44.3766 1.09554L41 3.62777Z" fill="#FBBC04"/>
<path id="Vector_5" d="M0.0015023 10.2599L5.54741 14.4195L12.0599 19.3037V3.6278L8.68337 1.09558C5.10202 -1.58753 0.0015023 0.962932 0.0015023 5.4363V10.2597V10.2599Z" fill="#C5221F"/>
</g>
<defs>
<clipPath id="clip0_56_8">
<rect width="53.06" height="40" fill="white"/>
</clipPath>
</defs>
</svg>
